<?xml version="1.0" encoding="iso-8859-1"?>
<!DOCTYPE svg PUBLIC "-//W3C//DTD SVG 1.1//EN" "http://www.w3.org/Graphics/SVG/1.1/DTD/svg11.dtd">
<svg version="1.1"
     xmlns="http://www.w3.org/2000/svg"
	 width="1280" height="90" 
	 >

	<path d="M 18.787,23.787 L 40,45 a 30,30 0 0,1 60,0 a 30 30 0 0,1 60,0 a 30 30 0 0,1 60,0 a 30 30 0 0,1 60,0 a 30 30 0 0,1 60,0 a 30 30 0 0,1 60,0 a 30 30 0 0,1 60,0 a 30 30 0 0,1 60,0 a 30 30 0 0,1 60,0 a 30 30 0 0,1 60,0 a 30 30 0 0,1 60,0 a 30 30 0 0,1 60,0 a 30 30 0 0,1 60,0 a 30 30 0 0,1 60,0 a 30 30 0 0,1 60,0 a 30 30 0 0,1 60,0 a 30 30 0 0,1 60,0 a 30 30 0 0,1 60,0 a 30 30 0 0,1 60,0 a 30 30 0 0,1 60,0 L 1261.213,23.787" fill="none" stroke="#808080" stroke-width="5" />

	<path d="M 10,45 a 30 30 0 1,0 60,0 a 30 30 0 1,0 60,0 a 30 30 0 1,0 60,0 a 30 30 0 1,0 60,0 a 30 30 0 1,0 60,0 a 30 30 0 1,0 60,0 a 30 30 0 1,0 60,0 a 30 30 0 1,0 60,0 a 30 30 0 1,0 60,0 a 30 30 0 1,0 60,0 a 30 30 0 1,0 60,0 a 30 30 0 1,0 60,0 a 30 30 0 1,0 60,0 a 30 30 0 1,0 60,0 a 30 30 0 1,0 60,0 a 30 30 0 1,0 60,0 a 30 30 0 1,0 60,0 a 30 30 0 1,0 60,0 a 30 30 0 1,0 60,0 a 30 30 0 1,0 60,0 a 30 30 0 1,0 60,0" fill="none" stroke="#808080" stroke-width="5" />

	<path d="M 40,45 L 18.787,23.787 a 30,30 0 0,0 42.426,42.426" fill="none" stroke="#808080"  stroke-width="5"/>

	<path d="M 1218.787,66.213 a 30,30 0 0,0 42.426,-42.426 L 1240,45 " fill="none" stroke="#808080" stroke-width="5" />
	
	<!--rect x="39" y="44" width="1202" height="2" rx="0.25" ry="0.25" fill="none" stroke="red" stroke-width="5" /-->
</svg>